PathFileType	4	(x/y/z)	TRC_MarkerData\Passive\Passive_Pref0002.trc
DataRate	CameraRate	NumFrames	NumMarkers	Units	OrigDataRate	OrigDataStartFrame	OrigNumFrames
240	240	4	50	mm	240	114	303
Frame#	Time	R_AC			L_AC			HEAD			STERN			C7			L_IC			R_IC			L_ASIS			R_ASIS			L_GT			R_GT			L_PSIS			R_PSIS			SACRAL			L_LAT_KNEE			L_MED_KNEE			R_LAT_KNEE			R_MED_KNEE			L_LAT_ANK			L_MED_ANK			R_LAT_ANK			R_MED_ANK			L_THIGH_PROX_POST			L_THIGH_PROX_ANT			L_THIGH_DIST_ANT			L_THIGH_DIST_POST			R_THIGH_PROX_POST			R_THIGH_PROX_ANT			R_THIGH_DIST_ANT			R_THIGH_DIST_POST			L_SHANK_PROX_POST			L_SHANK_PROX_ANT			L_SHANK_DIST_ANT			L_SHANK_DIST_POST			R_SHANK_PROX_POST			R_SHANK_PROX_ANT			R_SHANK_DIST_ANT			R_SHANK_DIST_POST			L_HEEL_LAT			L_HEEL_SUP			L_HEEL_MED			R_HEEL_LAT			R_HEEL_SUP			R_HEEL_MED			L_1ST_MET			L_5TH_MET			L_TOE			R_1ST_MET			R_5TH_MET			R_TOE			
		X1	Y1	Z1	X2	Y2	Z2	X3	Y3	Z3	X4	Y4	Z4	X5	Y5	Z5	X6	Y6	Z6	X7	Y7	Z7	X8	Y8	Z8	X9	Y9	Z9	X10	Y10	Z10	X11	Y11	Z11	X12	Y12	Z12	X13	Y13	Z13	X14	Y14	Z14	X15	Y15	Z15	X16	Y16	Z16	X17	Y17	Z17	X18	Y18	Z18	X19	Y19	Z19	X20	Y20	Z20	X21	Y21	Z21	X22	Y22	Z22	X23	Y23	Z23	X24	Y24	Z24	X25	Y25	Z25	X26	Y26	Z26	X27	Y27	Z27	X28	Y28	Z28	X29	Y29	Z29	X30	Y30	Z30	X31	Y31	Z31	X32	Y32	Z32	X33	Y33	Z33	X34	Y34	Z34	X35	Y35	Z35	X36	Y36	Z36	X37	Y37	Z37	X38	Y38	Z38	X39	Y39	Z39	X40	Y40	Z40	X41	Y41	Z41	X42	Y42	Z42	X43	Y43	Z43	X44	Y44	Z44	X45	Y45	Z45	X46	Y46	Z46	X47	Y47	Z47	X48	Y48	Z48	X49	Y49	Z49	X50	Y50	Z50	
 
114	0.47239	-310.97	1536	464.85	-318.92	1558.8	74.213	-198.53	1843.7	288.6	-216.66	1503.6	269.4	-360.85	1592.7	272.88	-339.45	1100.4	115.02	-322.65	1123.7	454.46	-275.07	1036.8	144.11	-256.12	1043.4	413.55	-376.45	965.1	101.69	-332.42	975.93	475.09	-477.35	1071.5	247.83	-459.93	1066.1	355.87	-480.98	1043.6	304.71	-414.12	560.97	146.56	-401.02	572.45	282.48	-174.26	580.15	457.64	-146.38	578.42	327.52	-541.05	127.09	179.39	-546.55	132.96	256.42	-169.24	114.66	420.88	-130.92	144.3	329	-422.58	820.3	123.86	-360.64	802.47	113.16	-372.69	729.29	125.14	-433.88	748.18	135.33	-287.17	798.99	476.58	-226.84	825.77	478.32	-201.82	755.27	474.62	-264.24	727.79	469.09	-417.33	507.91	156.09	-373.7	516.59	169.42	-381.2	467.41	177.72	-430.7	455.91	163.56	-238.09	419.5	443	-173.84	433.63	468.85	-160.1	360.93	461.62	-223.29	344.61	437.55	-610.41	54.988	180.85	-621.7	81.928	214.53	-615.58	51.052	247.25	-215.49	46.517	382.74	-219.74	71.252	346.35	-192.12	51.052	319.57	-391.79	49.313	286.76	-402.26	42.752	181.01	-338.13	56.362	265.58	22.966	105.84	374.02	-29.693	78.551	471.08	50.594	123.03	432.76
115	0.47657	-305.12	1535.3	465.15	-313.44	1558.2	74.554	-192.94	1843.1	289	-211.03	1503	269.6	-355.15	1592.1	273.24	-334.41	1100	115.25	-316.47	1123.1	454.63	-269.99	1036.3	144.12	-250.12	1042.6	413.52	-371.72	964.84	101.94	-326.59	975.18	475.21	-471.88	1071.2	248.44	-454.08	1065.8	356.42	-475.36	1043.4	305.34	-411.39	560.85	146.73	-398.22	572.23	282.66	-169.33	579.02	457.43	-141.77	577.32	327.36	-540.61	127.53	179.42	-546.09	133.36	256.5	-152.5	113.66	421.23	-115.33	144.29	329.31	-418.55	820.38	124.17	-356.68	802.3	113.3	-369.12	729.13	125.3	-430.2	748.31	135.61	-282.2	797.97	476.56	-221.76	824.5	478.42	-197.02	753.92	474.58	-259.53	726.7	468.91	-414.9	507.82	156.25	-371.22	516.24	169.6	-378.97	467.1	177.87	-428.53	455.88	163.7	-229.42	416.81	443.2	-165.51	432.6	468.88	-149.92	360.27	461.71	-212.73	342.31	437.73	-610.27	55.491	180.91	-621.49	82.437	214.59	-615.45	51.546	247.3	-197.14	44.266	383.27	-202.19	68.828	346.88	-174.08	49.443	320.04	-391.65	49.204	286.79	-402.18	42.737	181.04	-337.98	56.099	265.61	39.597	110.02	373.97	-12.059	81.434	471.14	66.91	127.94	432.65
116	0.48075	-299.26	1534.7	465.47	-307.93	1557.7	74.908	-187.36	1842.5	289.4	-205.38	1502.4	269.81	-349.43	1591.5	273.61	-329.37	1099.5	115.48	-310.24	1122.3	454.8	-264.89	1035.7	144.13	-244.09	1041.7	413.46	-366.97	964.56	102.2	-320.7	974.39	475.32	-466.37	1071	249.06	-448.2	1065.3	356.97	-469.7	1043.1	305.98	-408.65	560.73	146.89	-395.4	571.98	282.83	-164.45	577.84	457.21	-137.25	576.14	327.18	-540.16	127.96	179.46	-545.63	133.76	256.57	-135.88	112.89	421.56	-99.923	144.49	329.58	-414.5	820.46	124.49	-352.69	802.1	113.45	-365.53	728.96	125.46	-426.5	748.43	135.88	-277.22	796.9	476.55	-216.65	823.16	478.52	-192.22	752.5	474.55	-254.84	725.55	468.74	-412.45	507.71	156.41	-368.74	515.87	169.79	-376.73	466.78	178.01	-426.34	455.84	163.85	-220.79	414.19	443.42	-157.24	431.62	468.9	-139.82	359.69	461.8	-202.21	340.12	437.92	-610.14	56	180.96	-621.27	82.95	214.65	-615.32	52.043	247.35	-178.9	42.301	383.78	-184.79	66.678	347.4	-156.21	48.122	320.48	-391.52	49.096	286.82	-402.11	42.724	181.08	-337.83	55.839	265.64	55.95	114.4	373.81	5.3792	84.525	471.1	82.965	133.02	432.42
117	0.48493	-293.38	1534.1	465.79	-302.41	1557.1	75.275	-181.77	1841.9	289.8	-199.71	1501.7	270.03	-343.7	1590.8	273.99	-324.31	1099	115.71	-303.95	1121.6	454.96	-259.77	1035.1	144.13	-238.03	1040.9	413.4	-362.21	964.25	102.45	-314.75	973.56	475.42	-460.82	1070.6	249.7	-442.27	1064.9	357.53	-464.01	1042.7	306.63	-405.9	560.58	147.06	-392.56	571.73	283.01	-159.61	576.61	457	-132.79	574.9	326.97	-539.71	128.4	179.49	-545.17	134.16	256.65	-119.43	112.35	421.85	-84.717	144.88	329.81	-410.42	820.51	124.8	-348.67	801.89	113.58	-361.91	728.77	125.62	-422.78	748.53	136.15	-272.24	795.79	476.55	-211.51	821.77	478.61	-187.42	751.01	474.52	-250.16	724.36	468.58	-409.99	507.58	156.57	-366.23	515.5	169.97	-374.47	466.45	178.16	-424.15	455.79	163.99	-212.18	411.63	443.64	-149.04	430.67	468.92	-129.81	359.2	461.86	-191.75	338.03	438.12	-610.01	56.515	181.01	-621.06	83.467	214.71	-615.19	52.545	247.4	-160.82	40.618	384.25	-167.55	64.798	347.89	-138.54	47.084	320.88	-391.39	48.99	286.84	-402.03	42.714	181.11	-337.68	55.582	265.67	72.009	118.95	373.55	22.596	87.807	470.96	98.739	138.25	432.08
